PathFileType	4	(X/Y/Z)	TVC_58_Cal_02_0_static_RCNL2025.trc
DataRate	CameraRate	NumFrames	NumMarkers	Units	OrigDataRate	OrigDataStartFrame	OrigNumFrames
100	100	9	27	mm	100	64	102
Frame#	Time	R_Shoulder			L_Shoulder			C7			J_Notch			R_Elbow			L_Elbow			R_Wrist			L_Wrist			R_Asis			L_Asis			R_Psis			L_Psis			Sacral			Thoracic			Sternum			R_Thigh_Lateral			R_Knee_Lateral			R_Shank_Lateral			R_Ankle_Lateral			R_Heel			R_Toe			L_Thigh_Lateral			L_Knee_Lateral			L_Shank_Lateral			L_Ankle_Lateral			L_Heel			L_Toe		
		X1	Y1	Z1	X2	Y2	Z2	X3	Y3	Z3	X4	Y4	Z4	X5	Y5	Z5	X6	Y6	Z6	X7	Y7	Z7	X8	Y8	Z8	X9	Y9	Z9	X10	Y10	Z10	X11	Y11	Z11	X12	Y12	Z12	X13	Y13	Z13	X14	Y14	Z14	X15	Y15	Z15	X16	Y16	Z16	X17	Y17	Z17	X18	Y18	Z18	X19	Y19	Z19	X20	Y20	Z20	X21	Y21	Z21	X22	Y22	Z22	X23	Y23	Z23	X24	Y24	Z24	X25	Y25	Z25	X26	Y26	Z26	X27	Y27	Z27
64	0.63000000	-285.445496	1354.506592	-25.116545	-272.575134	1361.514404	-379.957916	-341.099304	1425.837646	-211.386429	-191.907730	1331.714355	-200.426407	-302.368591	1044.254517	58.690022	-323.372101	1052.074097	-453.702972	-217.761169	806.602844	92.584618	-265.051353	811.883759	-505.812073	-177.800430	909.473450	-57.014328	-165.095108	907.671692	-363.749634	-394.920471	964.881958	-149.050705	-396.698761	957.851379	-260.551819	-395.809616	961.366669	-204.801262	-377.257446	1119.183716	-208.541473	-86.270485	1083.272827	-208.150040	-227.859650	704.654541	34.131207	-236.262512	469.857147	-47.358654	-277.590240	271.912872	-1.227330	-308.440063	70.288353	-97.568344	-356.068176	61.178185	-156.050583	-178.985168	46.524269	-117.844421	-265.041382	676.281677	-444.844177	-233.665939	469.663788	-343.403015	-273.742706	286.774292	-402.949799	-322.690460	65.273972	-315.135498	-363.141693	57.795776	-261.644440	-184.297394	44.624874	-303.733734
65	0.64000000	-285.418701	1354.454346	-25.035322	-272.583130	1361.512817	-379.931976	-341.127899	1425.825684	-211.416336	-191.920334	1331.708862	-200.382477	-302.267365	1044.124634	58.739071	-323.442352	1052.006470	-453.653839	-217.822151	806.512878	92.607204	-265.066689	811.881409	-505.810989	-177.793350	909.455261	-57.138416	-165.021164	907.699158	-363.815369	-394.926605	964.809204	-148.998566	-396.625366	957.766663	-260.499451	-395.775986	961.287933	-204.749008	-377.285980	1119.149048	-208.426331	-86.151398	1083.387085	-208.173019	-227.847504	704.744629	34.187679	-236.286163	469.787262	-47.336403	-277.756012	271.927216	-0.988886	-308.404144	70.278336	-97.571854	-356.224518	61.162285	-156.039597	-178.935349	46.447636	-117.753494	-265.044220	676.270996	-444.794128	-233.667618	469.670807	-343.394104	-273.743134	286.810089	-403.038513	-322.725098	65.272141	-315.103027	-362.992004	57.568401	-261.645660	-184.304886	44.612461	-303.718475
66	0.65000000	-285.317230	1354.396362	-24.986654	-272.640717	1361.450928	-379.939728	-341.146149	1425.754150	-211.290665	-191.930283	1331.706177	-200.372650	-302.259369	1044.117798	58.764614	-323.452637	1051.967529	-453.627502	-217.791870	806.440155	92.592113	-264.422119	811.863464	-506.483154	-178.116669	909.338684	-57.335125	-164.889359	907.755310	-363.904938	-394.843689	964.733765	-148.967102	-396.605682	957.700195	-260.506073	-395.724686	961.216980	-204.736588	-377.239655	1119.051514	-208.347183	-86.043045	1083.410767	-208.254120	-227.732574	704.724365	34.148529	-236.308563	469.806030	-47.331188	-277.916748	271.777039	-0.918202	-308.349701	70.274475	-97.652481	-356.251312	61.116844	-156.046463	-178.943970	46.445496	-117.727882	-264.914429	676.239197	-444.754883	-233.688278	469.667542	-343.388092	-273.815826	286.816467	-403.028870	-322.689880	65.235687	-315.095245	-363.142670	57.754845	-261.595734	-184.215729	44.576302	-303.741608
67	0.66000000	-285.218170	1354.345825	-24.962973	-272.710022	1361.427734	-379.899841	-341.158539	1425.721313	-211.273605	-191.915558	1331.709473	-200.435303	-302.176483	1044.066406	58.774433	-323.467682	1051.863647	-453.326599	-217.771286	806.334290	92.551033	-265.260147	811.717041	-505.968185	-178.265793	909.266724	-57.172123	-164.864319	907.727905	-363.837738	-394.840790	964.638916	-148.921143	-396.563507	957.627747	-260.428711	-395.702148	961.133331	-204.674927	-377.232086	1119.030151	-208.315994	-86.037163	1083.384155	-208.231842	-227.566574	704.654053	34.141708	-236.151688	469.815277	-47.289436	-277.444275	272.059021	-1.437729	-308.416321	70.257034	-97.579437	-356.117065	61.232304	-156.026215	-178.992661	46.513828	-117.802841	-264.857178	676.255798	-444.820831	-233.686951	469.650879	-343.371490	-274.288513	286.988190	-403.158813	-322.642181	65.258400	-315.209076	-362.960236	57.553867	-261.565826	-184.256500	44.569584	-303.784973
68	0.67000000	-285.185242	1354.281128	-24.909794	-272.765564	1361.449463	-379.871002	-341.234985	1425.644043	-211.223541	-191.911575	1331.706299	-200.446960	-302.160858	1044.061279	58.797344	-323.539185	1051.912109	-453.533752	-217.814636	806.299622	92.583694	-265.471985	811.615417	-505.766983	-178.535049	909.218933	-57.432594	-164.708801	907.715393	-363.837494	-394.844727	964.636292	-148.918045	-396.425995	957.602234	-260.403534	-395.635361	961.119263	-204.660789	-377.183899	1118.956177	-208.242294	-86.044037	1083.414551	-208.298325	-227.439789	704.699646	34.125587	-236.126495	469.780731	-47.284241	-277.190155	272.099213	-1.591634	-308.441162	70.253494	-97.551689	-356.183960	61.230232	-156.031372	-178.940887	46.453506	-117.754204	-264.758240	676.219238	-444.790009	-233.621140	469.658081	-343.426605	-274.045868	286.820435	-403.064087	-322.694366	65.276367	-315.217468	-363.046661	57.772778	-261.576294	-184.184158	44.645947	-303.695160
69	0.68000000	-285.230438	1354.291138	-24.836906	-272.863495	1361.411621	-379.879517	-341.243744	1425.652222	-211.195129	-191.907547	1331.636230	-200.409683	-302.205658	1044.094238	58.810707	-323.552490	1051.952881	-453.544800	-217.848312	806.269806	92.645241	-265.560432	811.647552	-505.848785	-178.923401	909.131287	-57.653095	-164.701492	907.771179	-363.868347	-394.693390	964.524170	-148.908310	-396.357239	957.554138	-260.460236	-395.525314	961.039154	-204.684273	-377.149597	1118.909302	-208.265732	-85.902000	1083.500977	-208.254059	-227.537979	704.782959	34.204857	-235.977966	469.741821	-47.298168	-277.348724	271.947906	-1.370419	-308.475342	70.284485	-97.679245	-356.206116	61.287922	-156.035034	-178.991837	46.525261	-117.792244	-264.744049	676.203430	-444.792328	-233.612778	469.650543	-343.444580	-273.902679	286.684052	-403.000854	-322.677673	65.325775	-315.108948	-363.178925	57.865856	-261.624725	-184.243347	44.604042	-303.746674
70	0.69000000	-285.156525	1354.231079	-24.885458	-272.976227	1361.365356	-379.897217	-341.322906	1425.685059	-211.147888	-191.973846	1331.722168	-200.345978	-302.147766	1044.124146	58.895287	-323.612061	1051.919067	-453.496826	-217.836998	806.274902	92.630913	-265.566833	811.631653	-505.841888	-179.199448	909.161621	-57.727394	-164.581848	907.794617	-363.780090	-394.668243	964.509277	-148.912491	-396.320984	957.466736	-260.374237	-395.494614	960.988007	-204.643364	-377.180481	1118.870483	-208.108658	-85.747566	1083.625732	-208.413498	-227.326706	704.582214	34.094528	-235.943634	469.794678	-47.293159	-277.601135	271.842621	-0.993535	-308.519531	70.271820	-97.624954	-356.113586	61.272816	-156.090240	-178.913589	46.423359	-117.835442	-264.667145	676.234436	-444.791534	-233.607758	469.633606	-343.441681	-274.358368	286.991364	-403.187103	-322.676544	65.329597	-315.116302	-363.169250	57.839554	-261.528992	-184.227463	44.575211	-303.717896
71	0.70000000	-285.188995	1354.232056	-24.803894	-273.008911	1361.393433	-379.913025	-341.348877	1425.650513	-211.109070	-191.943115	1331.708984	-200.366501	-302.213715	1044.085815	58.955803	-323.686432	1051.948730	-453.468811	-217.823891	806.280060	92.641460	-265.618126	811.652771	-505.861313	-179.244385	909.132141	-57.734112	-164.481308	907.811707	-363.666931	-394.621460	964.453979	-148.836365	-396.250305	957.477295	-260.394562	-395.435883	960.965637	-204.615463	-377.195709	1118.890015	-208.058777	-85.704689	1083.659912	-208.418640	-227.228638	704.683289	34.175770	-235.969498	469.815674	-47.285072	-277.304077	271.980560	-1.155921	-308.450012	70.296745	-97.559616	-356.102020	61.293354	-156.071548	-178.913849	46.458981	-117.781235	-264.605743	676.254761	-444.745819	-233.594101	469.693024	-343.431946	-274.479309	287.120422	-403.183807	-322.693329	65.312637	-315.100098	-362.984741	57.636265	-261.632172	-184.249405	44.582886	-303.789581
72	0.71000000	-285.125854	1354.232910	-24.740173	-273.180695	1361.344116	-379.671143	-341.398773	1425.584961	-211.027222	-192.078201	1331.770020	-200.353668	-302.252075	1044.097778	58.989323	-323.769897	1051.937500	-453.398438	-217.799591	806.224365	92.690994	-265.664169	811.636230	-505.876541	-178.726898	909.173157	-57.508392	-164.465424	907.796082	-363.609375	-394.519135	964.401489	-148.887253	-396.206909	957.426208	-260.436798	-395.363022	960.913849	-204.662025	-377.136169	1118.827026	-207.994049	-85.664070	1083.775269	-208.456131	-227.163239	704.709167	34.228668	-235.769165	469.821045	-47.306293	-277.124359	271.948303	-1.348671	-308.513641	70.310440	-97.597237	-356.177399	61.333828	-156.004349	-178.901794	46.433586	-117.794128	-264.481140	676.287109	-444.756866	-233.532867	469.680115	-343.356598	-274.433228	287.091431	-403.194611	-322.649811	65.313522	-315.131744	-363.122314	57.852917	-261.625854	-184.319641	44.618206	-303.738953
